<?xml version="1.0" encoding="utf-8"?>
<svg viewBox="-0.458 0 1575.919 309.615" width="1575.919" height="309.615" xmlns="http://www.w3.org/2000/svg">
  <g transform="matrix(0.1, 0, 0, -0.1, -261.208496, 568.194641)" fill="#000000" stroke="none">
    <path d="M4995 5543 c-666 -38 -1176 -178 -1286 -352 -16 -25 -29 -53 -29 -62 0 -14 -12 -19 -57 -24 -264 -32 -505 -122 -650 -244 -263 -220 -330 -517 -187 -820 86 -183 246 -347 393 -405 l43 -17 -6 35 c-17 88 48 192 150 242 50 24 62 26 142 22 149 -9 142 -6 1397 -583 570 -262 1194 -547 1253 -571 l32 -14 0 127 0 128 -248 109 c-281 125 -997 454 -1208 556 -177 86 -227 137 -176 183 28 25 72 21 148 -15 52 -24 85 -33 144 -36 94 -5 139 8 185 55 29 30 44 36 117 49 94 18 241 13 324 -9 73 -21 173 -67 222 -105 l44 -33 -7 33 c-11 53 -59 151 -94 191 -18 20 -60 50 -94 67 -116 56 -219 57 -446 6 -62 -14 -129 -26 -148 -26 -33 0 -34 1 -19 22 20 29 21 110 1 148 -9 17 -17 30 -19 30 -2 0 -18 -24 -34 -53 -87 -155 -283 -237 -563 -237 -211 0 -487 69 -720 180 l-84 40 200 -5 c110 -3 295 -8 411 -11 174 -5 221 -3 272 10 75 19 162 55 162 67 0 14 -95 85 -147 110 -43 21 -60 23 -168 21 -66 -2 -259 -11 -430 -22 -330 -20 -415 -34 -514 -84 -103 -53 -152 -111 -191 -229 l-27 -80 -30 44 c-90 131 -127 245 -121 373 3 80 8 99 38 154 42 79 139 171 243 230 157 90 398 152 588 152 l89 0 -6 53 c-8 67 18 132 68 170 83 64 267 126 473 161 257 44 691 71 955 61 253 -10 668 -48 783 -71 l27 -6 0 115 0 115 -27 6 c-48 10 -380 35 -598 46 -192 9 -446 11 -570 3z" style="fill: rgb(233, 63, 51);"/>
    <path d="M12342 5529 c-271 -32 -562 -172 -756 -365 -187 -186 -297 -436 -298 -679 -1 -133 24 -219 95 -318 90 -125 185 -175 608 -317 220 -74 299 -109 361 -160 43 -35 78 -103 78 -149 0 -100 -122 -206 -283 -247 -81 -21 -215 -15 -277 13 -131 58 -182 233 -95 320 l33 33 -408 0 -408 0 -11 -62 c-30 -177 -20 -334 30 -460 86 -218 289 -371 578 -436 121 -27 461 -23 601 7 269 57 489 162 669 320 189 164 328 434 361 699 24 190 -29 359 -151 482 -93 92 -231 153 -630 276 -243 75 -313 111 -358 185 -57 94 18 217 152 250 28 7 95 12 148 12 81 0 104 -4 152 -26 68 -31 97 -72 97 -136 0 -39 -5 -49 -41 -83 l-40 -38 398 2 398 3 12 55 c17 82 16 275 -2 345 -70 276 -302 435 -689 474 -123 12 -217 12 -324 0z" style="fill: rgb(233, 63, 51);"/>
    <path d="M7825 5468 c-2 -7 -142 -611 -310 -1343 -168 -731 -309 -1340 -312 -1352 l-5 -23 379 0 380 0 292 1273 c162 699 304 1295 316 1323 25 55 72 98 132 120 33 11 -24 13 -415 14 -354 0 -454 -3 -457 -12z" style="fill: rgb(233, 63, 51);"/>
    <path d="M8952 5438 c-6 -24 -146 -630 -312 -1348 -166 -718 -303 -1313 -306 -1322 -5 -17 17 -18 355 -18 l361 0 5 23 c3 12 80 344 170 737 91 392 167 716 170 718 5 5 15 -29 231 -800 l189 -678 371 0 372 0 6 25 c4 14 137 591 296 1282 177 771 298 1274 311 1300 24 48 71 87 127 108 32 12 -18 13 -397 12 l-435 -2 -167 -723 c-141 -612 -179 -767 -179 -730 0 3 -85 330 -190 727 -104 397 -190 724 -190 726 0 3 -175 5 -389 5 l-389 0 -10 -42z" style="fill: rgb(233, 63, 51);"/>
    <path d="M13846 5463 c-3 -10 -143 -613 -311 -1341 -167 -727 -307 -1333 -311 -1347 l-6 -25 949 0 c684 0 960 3 984 11 47 16 93 52 117 91 12 20 51 167 97 363 42 182 78 339 82 350 3 11 -5 5 -19 -15 -13 -19 -43 -48 -67 -65 l-43 -30 -589 -3 c-324 -1 -589 1 -588 5 0 5 17 80 38 168 l37 160 584 5 583 5 73 315 c40 173 73 318 74 323 0 4 -261 7 -581 7 l-581 0 5 23 c3 12 20 86 38 165 l33 142 542 -2 542 -3 43 -30 c48 -34 78 -79 94 -141 10 -41 13 -31 88 294 42 185 77 350 77 366 0 82 -58 170 -132 202 -41 18 -90 19 -945 22 -856 2 -902 2 -907 -15z" style="fill: rgb(233, 63, 51);"/>
    <path d="M16265 5468 c-7 -18 -625 -2697 -625 -2709 0 -5 377 -9 953 -9 l953 0 53 26 c87 44 97 66 180 427 40 174 75 326 79 339 5 19 0 17 -30 -14 -19 -21 -55 -47 -79 -58 -42 -19 -66 -20 -616 -20 -315 0 -573 3 -573 8 0 4 16 80 37 170 l37 162 582 0 582 0 26 113 c15 61 48 207 75 322 l48 210 -579 3 c-493 2 -578 4 -578 16 0 8 13 72 30 143 16 70 32 138 35 151 l5 22 531 0 531 0 49 -27 c50 -27 109 -99 109 -134 0 -83 23 -10 92 292 62 267 78 353 73 386 -9 63 -60 132 -120 163 l-49 25 -903 3 c-727 2 -904 0 -908 -10z" style="fill: rgb(233, 63, 51);"/>
    <path d="M4921 5050 c-68 -11 -180 -31 -249 -45 -136 -27 -207 -31 -296 -14 l-57 10 -72 -77 c-40 -42 -73 -80 -75 -84 -3 -9 154 -30 221 -30 38 0 55 -7 92 -34 116 -89 269 -106 425 -48 86 33 312 161 304 173 -2 4 -36 10 -75 14 -53 5 -68 10 -59 19 7 7 55 11 133 11 99 0 128 -3 155 -18 42 -23 52 -15 25 21 -75 102 -243 138 -472 102z m59 -138 c0 -24 -81 -120 -122 -145 -38 -24 -58 -29 -109 -29 -53 0 -74 6 -138 39 -42 21 -75 43 -74 48 1 6 28 14 59 18 50 7 58 6 70 -12 8 -11 32 -26 53 -32 49 -15 89 3 113 49 21 42 19 41 65 57 43 16 83 19 83 7z" style="fill: rgb(233, 63, 51);"/>
  </g>
</svg>