<svg id="Capa_1" enable-background="new 0 0 512 512" height="512" viewBox="0 0 512 512" width="512" xmlns="http://www.w3.org/2000/svg" xmlns:xlink="http://www.w3.org/1999/xlink"><linearGradient id="lg1"><stop offset="0" stop-color="#c5baeb"/><stop offset="1" stop-color="#d7d1eb"/></linearGradient><linearGradient id="SVGID_1_" gradientUnits="userSpaceOnUse" x1="506.308" x2="215.995" xlink:href="#lg1" y1="267.031" y2="267.031"/><linearGradient id="SVGID_2_" gradientTransform="matrix(-1 0 0 1 459.454 0)" gradientUnits="userSpaceOnUse" x1="343.732" x2="354.423" xlink:href="#lg1" y1="162.453" y2="162.453"/><linearGradient id="SVGID_3_" gradientTransform="matrix(-1 0 0 1 459.454 0)" gradientUnits="userSpaceOnUse" x1="262.042" x2="276.083" y1="204.741" y2="204.741"><stop offset="0" stop-color="#ab2c37"/><stop offset="1" stop-color="#ff4757"/></linearGradient><linearGradient id="SVGID_4_" gradientTransform="matrix(-1 0 0 1 459.454 0)" gradientUnits="userSpaceOnUse" x1="198.746" x2="212.786" y1="241.396" y2="241.396"><stop offset="0" stop-color="#2f878a"/><stop offset="1" stop-color="#06daae"/></linearGradient><g><g><path d="m169.396 99.378-169.396 97.801 27.055 93.486 177.095 101.34c54.869 31.679 133.541 46.783 217.293 41.717 14.017-.848 26.993-7.684 35.619-18.765l50.963-65.471z" fill="url(#SVGID_1_)"/><path d="m268.682 309.103 132.436-76.462-231.722-133.263-169.396 97.801 268.682 154.602z" fill="#a996eb"/><path d="m256.582 330.824-232.383-133.645 145.197-83.83 189.642 108.969 17.497 10.102.383.221 12.1 6.986 12.1-6.986-231.722-133.263-169.396 97.801 268.682 154.602v-13.971z" fill="#e9e5f6"/><path d="m438.079 211.302c54.869 31.679 81.03 77.1 72.256 125.454l-2.31 12.73-22.05 1.334c-83.752 5.065-162.424-10.038-217.293-41.717z" fill="#e7e3f3"/><path d="m437.968 225.337c22.426 13.93 39.102 30.216 49.62 48.478 11.035 19.16 14.683 39.61 10.842 60.781l-.614 3.387-12.57.76c-10.306.623-20.702.939-30.899.939-60.692 0-116.733-10.971-160.457-31.16z" fill="#a996eb"/></g><path d="m441.382 410.716c-93.846 5.676-181.999-11.248-243.481-46.744l-179.329-102.619 8.483 29.312 177.095 101.34c54.869 31.679 133.541 46.783 217.293 41.717 14.017-.848 26.993-7.683 35.619-18.765l9.409-12.087c-7.522 4.561-16.113 7.304-25.089 7.846z" fill="#7662bd"/><g><path d="m69.368 181.222v-49.628l108.381-13.44v49.628c0 1.137-.563 2.274-1.688 2.924l-60.281 35.074c-2.244 1.296-5.009 1.296-7.253 0l-37.47-21.634c-1.126-.649-1.689-1.787-1.689-2.924z" fill="url(#SVGID_2_)"/><path d="m176.061 115.23-37.471-21.633c-2.244-1.296-5.009-1.296-7.253 0l-60.281 35.074c-2.251 1.299-2.251 4.548 0 5.848l37.47 21.634c2.244 1.296 5.009 1.296 7.253 0l60.281-35.074c2.252-1.3 2.252-4.549.001-5.849z" fill="#e9e5f6"/><g fill="#594a8e"><path d="m108.527 175.945c2.244 1.296 5.009 1.296 7.253 0l58.212-33.869v-9.914l-58.212 33.87c-2.244 1.296-5.009 1.296-7.253 0l-36.375-21.002v9.914z"/><path d="m108.527 194.197c2.244 1.296 5.009 1.296 7.253 0l58.212-33.869v-9.914l-58.212 33.87c-2.244 1.296-5.009 1.296-7.253 0l-36.375-21.001v9.914z"/></g></g><g><path d="m136.534 229.391v-65.178l142.34-17.651v65.178c0 1.494-.739 2.987-2.217 3.84l-79.169 46.064c-2.947 1.702-6.578 1.702-9.526 0l-49.211-28.412c-1.478-.854-2.217-2.347-2.217-3.841z" fill="url(#SVGID_3_)"/><path d="m276.657 142.722-49.211-28.412c-2.947-1.702-6.579-1.702-9.526 0l-79.169 46.064c-2.956 1.707-2.956 5.973 0 7.68l49.211 28.412c2.947 1.702 6.579 1.702 9.526 0l79.169-46.064c2.956-1.707 2.956-5.974 0-7.68z" fill="#ff7a85"/><g fill="#ff4757"><path d="m235.014 235.034-5.14 2.968v-55.308l5.14-2.968z"/><path d="m204.169 197.535v55.307l-5.683 3.281v-55.307z"/><path d="m224.733 185.662v55.308l-5.141 2.968v-55.307z"/><path d="m245.296 229.097-5.141 2.969v-55.308l5.141-2.968z"/><path d="m214.451 191.599v55.307l-5.141 2.968v-55.307z"/><path d="m250.437 170.822 4.902-2.83v55.307l-4.902 2.83z"/><path d="m270.926 158.92 4.901-2.83v55.308l-4.901 2.83z"/><path d="m265.86 217.06-5.141 2.968v-55.307l5.141-2.969z"/><path d="m271 158.784 4.902-2.83v55.308l-4.902 2.83z"/></g><g fill="#ab2c37"><path d="m163.804 187.28 23.352 13.536v55.307l-23.352-13.535z"/><path d="m161.585 185.996v55.307l-21.132-12.205v-55.308z"/></g><path d="m157.981 214.784 9.655 5.574c.973.562 1.761-.035 1.761-1.332 0-1.297-.788-2.804-1.761-3.365l-9.655-5.574c-.973-.562-1.761.035-1.761 1.331-.001 1.298.788 2.804 1.761 3.366z" fill="#ff7a85"/></g><g><path d="m199.83 266.046v-65.178l142.34-17.651v65.178c0 1.493-.739 2.987-2.217 3.84l-79.169 46.064c-2.947 1.702-6.579 1.702-9.526 0l-49.211-28.412c-1.478-.854-2.217-2.347-2.217-3.841z" fill="url(#SVGID_4_)"/><path d="m339.954 179.377-49.212-28.412c-2.947-1.702-6.579-1.702-9.526 0l-79.169 46.064c-2.956 1.707-2.956 5.973 0 7.68l49.211 28.412c2.947 1.702 6.579 1.702 9.526 0l79.169-46.064c2.957-1.707 2.957-5.973.001-7.68z" fill="#9bf0df"/><g fill="#1a4c4e"><path d="m298.311 271.689-5.141 2.968v-55.307l5.141-2.969z"/><path d="m267.465 234.19v55.308l-5.683 3.281v-55.308z"/><path d="m288.029 222.318v55.307l-5.141 2.968v-55.307z"/><path d="m308.592 265.753-5.14 2.968v-55.308l5.14-2.968z"/><path d="m277.747 228.254v55.307l-5.141 2.968v-55.307z"/><path d="m313.733 207.477 4.902-2.83v55.308l-4.902 2.83z"/><path d="m334.222 195.576 4.902-2.83v55.307l-4.902 2.83z"/><path d="m329.156 253.715-5.141 2.968v-55.307l5.141-2.968z"/><path d="m334.297 195.44 4.902-2.83v55.307l-4.902 2.83z"/></g><g fill="#2f878a"><path d="m227.101 223.935 23.351 13.536v55.308l-23.351-13.536z"/><path d="m224.882 222.651v55.308l-21.132-12.206v-55.308z"/></g><path d="m221.277 251.439 9.655 5.574c.973.562 1.761-.034 1.761-1.331 0-1.297-.788-2.804-1.761-3.365l-9.655-5.574c-.973-.562-1.761.035-1.761 1.332 0 1.296.788 2.803 1.761 3.364z" fill="#9bf0df"/></g><g><path d="m123.072 125.11c-1.336 0-2.42-1.084-2.42-2.42v-42.954c0-1.336 1.084-2.42 2.42-2.42s2.42 1.084 2.42 2.42v42.954c0 1.337-1.084 2.42-2.42 2.42z" fill="#594a8e"/></g></g></svg>