<svg xmlns="http://www.w3.org/2000/svg" viewBox="0 0 969.14 216.39" width="165"><polygon points="121.85 147.06 168.07 174.37 90.34 216.39 0 159.67 0 52.52 84.03 0 168.07 42.02 123.95 67.23 90.34 46.22 35.72 75.63 35.72 140.76 84.03 170.17 121.85 147.06" fill="#ef3d57"/><polygon points="110.41 107.22 183.94 153.44 165.03 107.22 183.94 63.1 110.41 107.22" fill="#ef3d57"/><path d="M328.52,610.54q-34.5,0-53.68-17t-19.18-49.91q0-32.94,19.06-50t53.06-17q34,0,52.26,10.37t18.27,30.64a6.77,6.77,0,0,1-2.16,5.19,7.73,7.73,0,0,1-5.47,2H372.36q-8.37,0-14.14-8.6-7.26-11.08-25.64-11.08t-25.71,9q-7.31,9-7.31,29.41t7.56,29.46q7.56,9.08,26.32,9.08t26-11.08q5.78-8.73,14.14-8.72h18.32a7.6,7.6,0,0,1,5.47,2.06,6.78,6.78,0,0,1,2.15,5.13q0,20.26-18.26,30.64T328.52,610.54Z" transform="translate(-34.69 -434.74)" fill="#ef3d57"/><path d="M444.67,620.44l16.11,2q17.34,0,24.22-24.39-20.91,0-34.92-12.08T426,543l-18.32-56.92a6.11,6.11,0,0,1-.37-2.18,5,5,0,0,1,1.54-3,6.1,6.1,0,0,1,4.61-1.89h25.7a11.71,11.71,0,0,1,6.83,2.3A10.52,10.52,0,0,1,450.2,487l16.11,50q6,18.38,12.24,25.46t14.69,7.07L517.71,487a11.13,11.13,0,0,1,3.88-5.72A10.09,10.09,0,0,1,528,479h26a5.41,5.41,0,0,1,4.55,1.89A5.66,5.66,0,0,1,560,484a7.5,7.5,0,0,1-.25,2.07L527.55,596.16q-8.61,29.24-21.34,41.72t-32.77,12.49q-20,0-28.34-1.41t-10.39-3.48a6.48,6.48,0,0,1-2.1-4.77v-13a7,7,0,0,1,2.1-5.25,7.34,7.34,0,0,1,5.41-2.06Z" transform="translate(-34.69 -434.74)" fill="#ef3d57"/><path d="M641.79,582.61l16.85-1.42h4.55a7.69,7.69,0,0,1,5.47,2,6.72,6.72,0,0,1,2.15,5.18V601a6.3,6.3,0,0,1-2.15,4.66,9.62,9.62,0,0,1-5.47,2.53q-12.54,2.36-32.71,2.36-52.87,0-52.88-53v-111a7,7,0,0,1,2.15-5.25,7.46,7.46,0,0,1,5.35-2.06h27.55a7.46,7.46,0,0,1,5.35,2.06,7,7,0,0,1,2.15,5.25v39.36h34.31a7.59,7.59,0,0,1,5.35,2A6.8,6.8,0,0,1,662,493v14a6.78,6.78,0,0,1-2.15,5.19,7.54,7.54,0,0,1-5.35,2H620.15V557.5q0,12,5.9,18.57T641.79,582.61Z" transform="translate(-34.69 -434.74)" fill="#ef3d57"/><path d="M691,601V486.32a7,7,0,0,1,2.15-5.24,7.43,7.43,0,0,1,5.35-2.07H726a7.43,7.43,0,0,1,5.35,2.07,7,7,0,0,1,2.15,5.24v7.43q21.15-17.1,45.07-17.09t38.92,14q15,14,15,42.72V601a6.78,6.78,0,0,1-2.15,5.13,7.56,7.56,0,0,1-5.47,2.06H797.48a7.39,7.39,0,0,1-5.35-2.06A6.78,6.78,0,0,1,790,601V533.34q0-28.15-23.49-28.16-15.37,0-33,16.85v79a6.82,6.82,0,0,1-2.15,5.13,7.42,7.42,0,0,1-5.35,2.06H698.48a7.42,7.42,0,0,1-5.35-2.06A6.82,6.82,0,0,1,691,601Z" transform="translate(-34.69 -434.74)" fill="#ef3d57"/><path d="M874.34,593.57q-19.19-17-19.19-50t19.19-50q19.18-16.9,55.15-16.91t55.15,16.91q19.18,16.9,19.19,50t-19.19,50q-19.18,17-55.15,17T874.34,593.57ZM905.45,513q-7.62,9.54-7.63,30.52t7.63,30.64q7.62,9.68,24,9.67t24.1-9.67q7.7-9.66,7.69-30.64T953.59,513q-7.68-9.56-24.1-9.55T905.45,513Z" transform="translate(-34.69 -434.74)" fill="#ef3d57"/><path d="M952.06,449.76v-1.27a1.17,1.17,0,0,1,.4-.91,1.41,1.41,0,0,1,1-.36h18.63a1.43,1.43,0,0,1,1,.36,1.17,1.17,0,0,1,.4.91v1.27a1.14,1.14,0,0,1-.4.9,1.43,1.43,0,0,1-1,.36h-6.55v14.23a1.12,1.12,0,0,1-.4.88,1.47,1.47,0,0,1-1,.35h-2.77a1.45,1.45,0,0,1-1-.35,1.12,1.12,0,0,1-.4-.88V451h-6.55a1.41,1.41,0,0,1-1-.36A1.14,1.14,0,0,1,952.06,449.76Z" transform="translate(-34.69 -434.74)" fill="#ef3d57"/><path d="M975.88,465.19V448.52a1.21,1.21,0,0,1,.4-.93,1.35,1.35,0,0,1,1-.37h6a1.79,1.79,0,0,1,1.09.37,1.86,1.86,0,0,1,.69.9L989.33,460l4.34-11.48a1.75,1.75,0,0,1,.69-.9,1.79,1.79,0,0,1,1.08-.37h6a1.33,1.33,0,0,1,1,.37,1.24,1.24,0,0,1,.39.93v16.67a1.18,1.18,0,0,1-.4.92,1.39,1.39,0,0,1-1,.37h-2.64a1.39,1.39,0,0,1-1-.37,1.18,1.18,0,0,1-.4-.92V452.07l-5.19,13.2a2,2,0,0,1-.72.86,1.9,1.9,0,0,1-1.08.35h-2.1a1.85,1.85,0,0,1-1.08-.35,2.12,2.12,0,0,1-.73-.86l-5.17-13.2v13.12a1.18,1.18,0,0,1-.4.92,1.39,1.39,0,0,1-1,.37h-2.64a1.42,1.42,0,0,1-1-.37A1.19,1.19,0,0,1,975.88,465.19Z" transform="translate(-34.69 -434.74)" fill="#ef3d57"/></svg>