<svg width="512" height="512" xmlns="http://www.w3.org/2000/svg" xmlns:xlink="http://www.w3.org/1999/xlink" enable-background="new 0 0 512 512">
 <defs>
  <linearGradient id="lg1">
   <stop stop-color="#c5baeb" offset="0"/>
   <stop stop-color="#d7d1eb" offset="1"/>
  </linearGradient>
  <linearGradient y2="0.5" y1="0.5" x2="0.67094" x1="0.57231" id="svg_101">
   <stop stop-color="#2f878a" offset="0"/>
   <stop stop-color="#06daae" offset="1"/>
  </linearGradient>
  <linearGradient y2="0.5" y1="0.5" x2="0.67095" x1="0.57231" id="svg_102">
   <stop stop-color="#ab2c37" offset="0"/>
   <stop stop-color="#ff4757" offset="1"/>
  </linearGradient>
  <linearGradient y2="0.5" y1="0.5" xlink:href="#lg1" x2="0.67095" x1="0.5723" id="svg_103"/>
  <linearGradient y2="0.5" y1="0.5" xlink:href="#lg1" x2="0.57483" x1="0.00338" id="svg_104"/>
 </defs>
 <g>
  <title>Layer 1</title>
  <g stroke="null" id="svg_1">
   <g stroke="null" id="svg_2">
    <path stroke="null" id="svg_3" fill="url(#svg_104)" d="m342.26587,62.86221l168.73414,108.96287l-26.94929,104.15541l-176.40306,112.90577c-54.65462,35.29447 -133.01923,52.12227 -216.444,46.47809c-13.96223,-0.94478 -26.88753,-8.56096 -35.47983,-20.90662l-50.76388,-72.9431l337.30591,-278.65243z"/>
    <path stroke="null" id="svg_4" fill="#a996eb" d="m243.3678,296.52279l-131.91855,-85.18849l230.81662,-148.47209l168.73414,108.96287l-267.63221,172.24648l0,-47.54877z"/>
    <path stroke="null" id="svg_5" fill="#e9e5f6" d="m255.42052,320.72277l231.47504,-148.89769l-144.62969,-93.39738l-188.90103,121.40546l-17.42864,11.25493l-0.3815,0.24622l-12.05272,7.7833l-12.05272,-7.7833l230.81662,-148.47209l168.73414,108.96287l-267.63221,172.24648l0,-15.56549l12.05272,-7.7833z"/>
    <path stroke="null" id="svg_6" fill="#e7e3f3" d="m74.63266,187.55992c-54.65462,35.29447 -80.7134,85.8993 -71.97368,139.77187l2.30097,14.18285l21.96385,1.48625c83.42477,5.64306 161.78938,-11.18362 216.444,-46.47809l-168.73513,-108.96287z"/>
    <path stroke="null" id="svg_7" fill="#a996eb" d="m74.74323,203.19671c-22.33838,15.51981 -38.94922,33.6645 -49.42613,54.01072c-10.99188,21.3467 -14.62563,44.13063 -10.79964,67.71784l0.6116,3.77355l12.52089,0.84674c10.26573,0.6941 20.62111,1.04617 30.77827,1.04617c60.45487,0 116.2769,-12.2231 159.83006,-34.71624l-143.51506,-92.67877z"/>
   </g>
   <path stroke="null" id="svg_8" fill="#7662bd" d="m71.34257,409.73272c93.47933,6.32379 181.2879,-12.53172 242.52967,-52.07882l178.62833,-114.33074l-8.44986,32.65733l-176.40306,112.90577c-54.65462,35.29447 -133.01923,52.12227 -216.444,46.47809c-13.96223,-0.94478 -26.88753,-8.55985 -35.47983,-20.90662l-9.37224,-13.46647c7.49261,5.08154 16.05004,8.13759 24.99097,8.74145z"/>
   <g stroke="null" id="svg_9">
    <path stroke="null" id="svg_10" fill="url(#svg_103)" d="m441.90304,154.04694l0,-55.29196l-107.95754,-14.97389l0,55.29196c0,1.26676 0.5608,2.53353 1.6814,3.25771l60.04547,39.07694c2.23523,1.44391 4.98943,1.44391 7.22466,0l37.3236,-24.10305c1.1216,-0.72307 1.6824,-1.99095 1.6824,-3.25771z"/>
    <path stroke="null" id="svg_11" fill="#e9e5f6" d="m335.62691,80.52338l37.32459,-24.10194c2.23523,-1.44391 4.98943,-1.44391 7.22466,0l60.04547,39.07694c2.2422,1.44725 2.2422,5.06706 0,6.51542l-37.3236,24.10305c-2.23523,1.44391 -4.98943,1.44391 -7.22466,0l-60.04547,-39.07694c-2.2432,-1.44837 -2.2432,-5.06817 -0.001,-6.51654z"/>
    <g stroke="null" id="svg_12" fill="#594a8e">
     <path stroke="null" id="svg_13" d="m402.89704,148.16768c-2.23523,1.44391 -4.98943,1.44391 -7.22466,0l-57.98455,-37.73442l0,-11.04547l57.98455,37.73553c2.23523,1.44391 4.98943,1.44391 7.22466,0l36.23288,-23.39892l0,11.04547l-36.23288,23.39781z"/>
     <path stroke="null" id="svg_14" d="m402.89704,168.50275c-2.23523,1.44391 -4.98943,1.44391 -7.22466,0l-57.98455,-37.73442l0,-11.04547l57.98455,37.73553c2.23523,1.44391 4.98943,1.44391 7.22466,0l36.23288,-23.39781l0,11.04547l-36.23288,23.3967z"/>
    </g>
   </g>
   <g stroke="null" id="svg_15">
    <path stroke="null" id="svg_16" fill="url(#svg_102)" d="m374.99947,207.71339l0,-72.61666l-141.78385,-19.66548l0,72.61666c0,1.66451 0.73611,3.3279 2.20834,4.27825l78.85967,51.32121c2.93549,1.89625 6.5523,1.89625 9.48878,0l49.01872,-31.65462c1.47223,-0.95147 2.20834,-2.61486 2.20834,-4.27937z"/>
    <path stroke="null" id="svg_17" fill="#ff7a85" d="m235.42396,111.15299l49.01872,-31.65462c2.93549,-1.89625 6.55329,-1.89625 9.48878,0l78.85967,51.32121c2.94445,1.90182 2.94445,6.65469 0,8.55651l-49.01872,31.65462c-2.93549,1.89625 -6.55329,1.89625 -9.48878,0l-78.85967,-51.32121c-2.94445,-1.90182 -2.94445,-6.6558 0,-8.55651z"/>
    <g stroke="null" id="svg_18" fill="#ff4757">
     <path stroke="null" id="svg_19" d="m276.90425,214.00041l5.11992,3.30673l0,-61.62021l-5.11992,-3.30673l0,61.62021z"/>
     <path stroke="null" id="svg_20" d="m307.62873,172.22171l0,61.6191l5.6608,3.65546l0,-61.6191l-5.6608,-3.65546z"/>
     <path stroke="null" id="svg_21" d="m287.14508,158.99367l0,61.62021l5.12091,3.30673l0,-61.6191l-5.12091,-3.30785z"/>
     <path stroke="null" id="svg_22" d="m266.66242,207.38583l5.12091,3.30785l0,-61.62021l-5.12091,-3.30673l0,61.6191z"/>
     <path stroke="null" id="svg_23" d="m297.38691,165.60825l0,61.6191l5.12091,3.30673l0,-61.6191l-5.12091,-3.30673z"/>
     <path stroke="null" id="svg_24" d="m261.54151,142.46l-4.88285,-3.15298l0,61.6191l4.88285,3.15298l0,-61.6191z"/>
     <path stroke="null" id="svg_25" d="m241.13256,129.19965l-4.88185,-3.15298l0,61.62021l4.88185,3.15298l0,-61.62021z"/>
     <path stroke="null" id="svg_26" d="m246.17877,193.97507l5.12091,3.30673l0,-61.6191l-5.12091,-3.30785l0,61.62021z"/>
     <path stroke="null" id="svg_27" d="m241.05885,129.04812l-4.88285,-3.15298l0,61.62021l4.88285,3.15298l0,-61.62021z"/>
    </g>
    <g stroke="null" id="svg_28" fill="#ab2c37">
     <path stroke="null" id="svg_29" d="m347.83602,160.79633l-23.26076,15.08084l0,61.6191l23.26076,-15.07973l0,-61.62021z"/>
     <path stroke="null" id="svg_30" d="m350.04635,159.36579l0,61.6191l21.04943,-13.59794l0,-61.62021l-21.04943,13.59905z"/>
    </g>
    <path stroke="null" id="svg_31" fill="#ff7a85" d="m353.63627,191.43931l-9.61728,6.21015c-0.9692,0.62614 -1.75412,-0.03899 -1.75412,-1.48402c0,-1.44502 0.78492,-3.12402 1.75412,-3.74904l9.61728,-6.21015c0.9692,-0.62614 1.75412,0.03899 1.75412,1.4829c0.001,1.44614 -0.78492,3.12402 -1.75412,3.75016z"/>
   </g>
   <g stroke="null" id="svg_32">
    <path stroke="null" id="svg_33" fill="url(#svg_101)" d="m311.95078,248.55176l0,-72.61666l-141.78385,-19.66548l0,72.61666c0,1.66339 0.73611,3.3279 2.20834,4.27825l78.85967,51.32121c2.93549,1.89625 6.55329,1.89625 9.48878,0l49.01872,-31.65462c1.47223,-0.95147 2.20834,-2.61486 2.20834,-4.27937z"/>
    <path stroke="null" id="svg_34" fill="#9bf0df" d="m172.37427,151.99137l49.01972,-31.65462c2.93549,-1.89625 6.55329,-1.89625 9.48878,0l78.85967,51.32121c2.94445,1.90182 2.94445,6.65469 0,8.55651l-49.01872,31.65462c-2.93549,1.89625 -6.55329,1.89625 -9.48878,0l-78.85967,-51.32121c-2.94545,-1.90182 -2.94545,-6.65469 -0.001,-8.55651z"/>
    <g stroke="null" id="svg_35" fill="#1a4c4e">
     <path stroke="null" id="svg_36" d="m213.85456,254.83879l5.12091,3.30673l0,-61.6191l-5.12091,-3.30785l0,61.62021z"/>
     <path stroke="null" id="svg_37" d="m244.58004,213.06009l0,61.62021l5.6608,3.65546l0,-61.62021l-5.6608,-3.65546z"/>
     <path stroke="null" id="svg_38" d="m224.09639,199.83316l0,61.6191l5.12091,3.30673l0,-61.6191l-5.12091,-3.30673z"/>
     <path stroke="null" id="svg_39" d="m203.61373,248.22533l5.11992,3.30673l0,-61.62021l-5.11992,-3.30673l0,61.62021z"/>
     <path stroke="null" id="svg_40" d="m234.33822,206.44662l0,61.6191l5.12091,3.30673l0,-61.6191l-5.12091,-3.30673z"/>
     <path stroke="null" id="svg_41" d="m198.49282,183.29838l-4.88285,-3.15298l0,61.62021l4.88285,3.15298l0,-61.62021z"/>
     <path stroke="null" id="svg_42" d="m178.08387,170.03914l-4.88285,-3.15298l0,61.6191l4.88285,3.15298l0,-61.6191z"/>
     <path stroke="null" id="svg_43" d="m183.13008,234.81345l5.12091,3.30673l0,-61.6191l-5.12091,-3.30673l0,61.6191z"/>
     <path stroke="null" id="svg_44" d="m178.00917,169.88761l-4.88285,-3.15298l0,61.6191l4.88285,3.15298l0,-61.6191z"/>
    </g>
    <g stroke="null" id="svg_45" fill="#2f878a">
     <path stroke="null" id="svg_46" d="m284.78633,201.6347l-23.25976,15.08084l0,61.62021l23.25976,-15.08084l0,-61.62021z"/>
     <path stroke="null" id="svg_47" d="m286.99666,200.20416l0,61.62021l21.04943,-13.59905l0,-61.62021l-21.04943,13.59905z"/>
    </g>
    <path stroke="null" id="svg_48" fill="#9bf0df" d="m290.58758,232.27769l-9.61728,6.21015c-0.9692,0.62614 -1.75412,-0.03788 -1.75412,-1.4829c0,-1.44502 0.78492,-3.12402 1.75412,-3.74904l9.61728,-6.21015c0.9692,-0.62614 1.75412,0.03899 1.75412,1.48402c0,1.44391 -0.78492,3.1229 -1.75412,3.74793z"/>
   </g>
   <g stroke="null" id="svg_49">
    <path stroke="null" id="svg_50" fill="#594a8e" d="m388.40887,91.53096c1.33078,0 2.41054,-1.20772 2.41054,-2.69619l0,-47.85627c0,-1.48848 -1.07976,-2.69619 -2.41054,-2.69619s-2.41054,1.20772 -2.41054,2.69619l0,47.85627c0,1.48959 1.07976,2.69619 2.41054,2.69619z"/>
   </g>
  </g>
 </g>
</svg>