<svg height="512" viewBox="0 0 58 46" width="512" xmlns="http://www.w3.org/2000/svg"><g id="Page-1" fill="none" fill-rule="evenodd"><g id="051---Dumper-Truck"><path id="Path" d="m44 46h-32c-.5522847 0-1-.4477153-1-1s.4477153-1 1-1h32c.5522847 0 1 .4477153 1 1s-.4477153 1-1 1z" fill="#a56a43"/><path id="Path" d="m58 37c-.0081672 1.1011688-.8988312 1.9918328-2 2h-3.22c.293363-1.3171967.293363-2.6828033 0-4h3.22c1.1032019.0032948 1.9967052.8967981 2 2z" fill="#bdc3c7"/><path id="Path" d="m35 37c.0012264.6726367.0749861 1.3431799.22 2h-14.44c.293363-1.3171967.293363-2.6828033 0-4h14.44c-.1450139.6568201-.2187736 1.3273633-.22 2z" fill="#bdc3c7"/><path id="Path" d="m33.67 23h19.33c1.6568542 0 3 1.3431458 3 3v9h-35.22l-16.34-2.87-2.79-2.03c-1.57846532-1.1410061-2.09898067-3.2569222-1.23-5l2.66-5.3z" fill="#f0c419"/><path id="Path" d="m52 14v9h-21l11.34-13h5.66c2.209139 0 4 1.790861 4 4z" fill="#67b9cc"/><path id="Path" d="m58 2v2c-.0032948 1.10320187-.8967981 1.9967052-2 2h-8.32c-1.6730176-.00183187-3.235394.83569201-4.16 2.23l-1.18 1.77-8.67 13-1.88 2.82c-.4719447.7112762-1.3456091 1.0414167-2.17.82l-4.62-1.19-2.07-.53-2.16-.56-2.07-.53-2.16-.56-2.07-.54-11.39-2.93-1.58-.41c-.88205085-.2317345-1.49773469-1.0280189-1.5-1.94v-8.45c.0032948-1.10320187.89679813-1.9967052 2-2h25.94c1.2948168.00183536 2.5100966-.62444381 3.26-1.68l2.6-3.64c.7499034-1.05555619 1.9651832-1.68183536 3.26-1.68h18.94c1.1032019.0032948 1.9967052.89679813 2 2z" fill="#f3d55b"/><g fill="#b19046"><path id="Path" d="m29.82 18.57-4.82 6.88-2.07-.53 5.25-7.49c.1949429-.3140985.5472678-.4950264.9161266-.4704546s.6940717.2506345.8456291.5878153c.1515574.3371809.1047325.7304686-.1217557 1.0226393z"/><path id="Path" d="m24.82 18.57-4.05 5.79-2.07-.53 4.48-6.4c.3259941-.4205337.9242081-.5121453 1.3611129-.2084432.4369048.3037022.5594767.8963478.2788871 1.3484432z"/><path id="Path" d="m19.82 18.57-3.28 4.7-2.07-.54 3.71-5.3c.3259941-.4205337.9242081-.5121453 1.3611129-.2084432.4369048.3037022.5594767.8963478.2788871 1.3484432z"/></g><path id="Path" d="m4 15c-.55228475 0-1-.4477153-1-1v-3c0-.5522847.44771525-1 1-1h3c.55228475 0 1 .4477153 1 1s-.44771525 1-1 1h-2v2c0 .5522847-.44771525 1-1 1z" fill="#fff"/><path id="Path" d="m48.83 17.55-3.63 5.45h-2.4l4.37-6.55c.1793781-.3344065.5325821-.5384678.9118826-.5268341.3793006.0116337.7193347.2369575.8778815.5817287.1585468.3447711.1082846.749577-.1297641 1.0451054z" fill="#285680"/><path id="Path" d="m43.83 17.55-3.63 5.45h-2.4l4.37-6.55c.1793781-.3344065.5325821-.5384678.9118826-.5268341.3793006.0116337.7193347.2369575.8778815.5817287.1585468.3447711.1082846.749577-.1297641 1.0451054z" fill="#285680"/><path id="Path" d="m53 37c-.0012264.6726367-.0749861 1.3431799-.22 2-.9353194 4.0960108-4.5785566 7.001097-8.78 7.001097s-7.8446806-2.9050862-8.78-7.001097c-.293363-1.3171967-.293363-2.6828033 0-4 .9353194-4.0960108 4.5785566-7.001097 8.78-7.001097s7.8446806 2.9050862 8.78 7.001097c.1450139.6568201.2187736 1.3273633.22 2z" fill="#464f5d"/><circle id="Oval" cx="44" cy="37" fill="#ecf0f1" r="3"/><path id="Path" d="m21 37c-.0012264.6726367-.0749861 1.3431799-.22 2-1.0180371 4.4666196-5.2288346 7.4557947-9.7812746 6.9435642-4.55244001-.5122306-7.99368979-4.3623973-7.99368979-8.9435642s3.44124978-8.4313336 7.99368979-8.9435642c4.55244-.5122305 8.7632375 2.4769446 9.7812746 6.9435642.1450139.6568201.2187736 1.3273633.22 2z" fill="#464f5d"/><circle id="Oval" cx="12" cy="37" fill="#ecf0f1" r="3"/></g></g></svg>