<svg id="Capa_1" enable-background="new 0 0 510 510" height="512" viewBox="0 0 510 510" width="512" xmlns="http://www.w3.org/2000/svg"><g><g id="XMLID_131_"><path id="XMLID_125_" d="m195 82.5 10-37.5-10-37.5c-34 0-65.5 9.5-92.1 21.9-39.3 18.3-68 43-78.9 53.1l85.5 10z" fill="#4a5f77"/><path id="XMLID_70_" d="m366 82.5c-10.9-10.1-39.6-34.8-78.9-53.1-26.6-12.4-58.1-21.9-92.1-21.9v75l85.5 10z" fill="#36485b"/><path id="XMLID_128_" d="m0 82.5v126.2l68.8 68.8 63.1 15 63.1-15 10-30.5-10-44.5-14-120h-31l-15 10-15-10c-13.6 0-23.1 0-36.5 0l-15 10-15-10z" fill="#ffba54"/><g fill="#f93"><path id="XMLID_7_" d="m150 172.5c-10.5 0-19.5 0-30 0 0-10.9 0-79 0-90h30z"/><path id="XMLID_6_" d="m83.5 157.5c-10.5 0-19.5 0-30 0 0-20.2 0-63.2 0-75h30z"/><path id="XMLID_24_" d="m195 202.5c-5.3 0-9.7 0-15 0 0-14.5 0-105.4 0-120h15l10 60z"/><path id="XMLID_72_" d="m195 180v97.5l75 10 75-10 11.3-119.7c6.9-11.5 34.5-57.5 45.2-75.3-15 0-114.1 0-131.5 0l-15 10-15-10h-30z"/></g><path id="XMLID_5_" d="m270 232.5c-10.5 0-19.5 0-30 0 0-10.1 0-139.9 0-150h30z" fill="#f37445"/><path id="XMLID_4_" d="m210 202.5c-5.2 0-9.8 0-15 0 0-14.5 0-105.4 0-120h15z" fill="#f37445"/><path id="XMLID_135_" d="m0 277.5v120c0 24.8 20.2 45 45 45h150l10-82.5-10-82.5h-63.1c-11 0-119.6 0-131.9 0z" fill="#ffe666"/><path id="XMLID_203_" d="m375 157.5c-6.5 0-12 0-18.5 0-2.3 3.8-11.4 18.9-11.5 19.2v100.8c-20.9 0-129.2 0-150 0v165h270c24.8 0 45-20.2 45-45 0-10.9 0-79 0-90z" fill="#ffba54"/><circle id="XMLID_544_" cx="375" cy="442.5" fill="#4a5f77" r="60"/><path id="XMLID_2_" d="m177.4 484.9c-10.9 10.9-25.9 17.6-42.4 17.6-33.1 0-60-26.9-60-60 0-16.6 6.7-31.6 17.6-42.4 23.4-23.4 61.4-23.5 84.9 0 23.3 23.4 23.4 61.4-.1 84.8z" fill="#4a5f77"/><path id="XMLID_69_" d="m506.7 277.5c-2.2-8.8-15.8-63.4-18-72.2-7-28.2-32.2-47.8-61.3-47.8-7.8 0-14.6 0-22.4 0l-10 60 10 60 50.9 10z" fill="#edf5ff"/><path id="XMLID_66_" d="m405 277.5c0-14.5 0-105.4 0-120-10.5 0-19.5 0-30 0v150h135c0-5.9 0-11 0-16.8-.3-1.3-3-11.9-3.3-13.2-27.5 0-85.5 0-101.7 0z" fill="#b5dbff"/></g><g fill="#36485b"><path d="m120 427.5h30v30h-30z"/><path d="m360 427.5h30v30h-30z"/></g></g></svg>