<svg height="512" viewBox="0 0 58 47" width="512" xmlns="http://www.w3.org/2000/svg"><g id="Page-1" fill="none" fill-rule="evenodd"><g id="021---Dumper-Truck"><path id="Path" d="m54 47h-50c-.55228475 0-1-.4477153-1-1s.44771525-1 1-1h50c.5522847 0 1 .4477153 1 1s-.4477153 1-1 1z" fill="#547580"/><path id="Path" d="m52.75 36h3.25c1.1032019.0032948 1.9967052.8967981 2 2-.0081672 1.1011688-.8988312 1.9918328-2 2h-3.25z" fill="#d25627"/><path id="Path" d="m41 10h7c2.209139 0 4 1.790861 4 4v9h-20z" fill="#b0d3f0"/><path id="Path" d="m44 24c-.3687074-.0003134-.7073293-.2034902-.88111-.5286756s-.1545228-.719615.05011-1.0263244l4-6c.306518-.4595009.9274991-.583518 1.387-.277s.583518.9274991.277 1.387l-4 6c-.1857211.2783647-.4983673.4453846-.833.445z" fill="#fff"/><path id="Path" d="m39 24c-.3687074-.0003134-.7073293-.2034902-.88111-.5286756s-.1545228-.719615.05011-1.0263244l4-6c.1982824-.297245.5400812-.4661282.8966441-.4430331s.6737195.2346599.832.555c.1582805.32034.1336383.7007881-.0646441.9980331l-4 6c-.1857211.2783647-.4983673.4453846-.833.445z" fill="#fff"/><path id="Path" d="m56 36v-10c0-1.6568542-1.3431458-3-3-3h-19.33l-30.59-3.21-2.66 5.31c-.86898067 1.7430778-.34846532 3.8589939 1.23 5 0 0 4.71 3.43 4.72 3.44l6.963 2.46z" fill="#e57e25"/><circle id="Oval" cx="13" cy="38" fill="#35495e" r="8"/><circle id="Oval" cx="29" cy="38" fill="#35495e" r="8"/><circle id="Oval" cx="45" cy="38" fill="#35495e" r="8"/><path id="Path" d="m58 2v2c-.0032948 1.10320187-.8967981 1.9967052-2 2h-8.32c-1.6730176-.00183187-3.235394.83569201-4.16 2.23l-11.73 17.59c-.4719447.7112762-1.3456091 1.0414167-2.17.82l-4.62-1.19-1.99-.52-2.24-.57-2-.52-2.24-.57-2-.52-13.03-3.36c-.88205085-.2317345-1.49773469-1.0280189-1.5-1.94v-8.45c.0032948-1.10320187.89679813-1.9967052 2-2h25.94c1.2948168.00183536 2.5100966-.62444381 3.26-1.68l2.6-3.64c.7499034-1.05555619 1.9651832-1.68183536 3.26-1.68h18.94c1.1032019.0032948 1.9967052.89679813 2 2z" fill="#f0c419"/><path id="Path" d="m29.82 18.57-4.82 6.88-1.99-.52c.023293-.1154361.0710294-.2245479.14-.32l5.03-7.18c.1949429-.3140985.5472678-.4950264.9161266-.4704546s.6940717.2506345.8456291.5878153c.1515574.3371809.1047325.7304686-.1217557 1.0226393z" fill="#f29c1f"/><path id="Path" d="m24.82 18.57-4.05 5.79-2-.52c.031303-.1144706.0820411-.2227119.15-.32l4.26-6.09c.3259941-.4205337.9242081-.5121453 1.3611129-.2084432.4369048.3037022.5594767.8963478.2788871 1.3484432z" fill="#f29c1f"/><path id="Path" d="m19.82 18.57-3.29 4.7-2-.52c.031303-.1144706.0820411-.2227119.15-.32l3.5-5c.3259941-.4205337.9242081-.5121453 1.3611129-.2084432.4369048.3037022.5594767.8963478.2788871 1.3484432z" fill="#f29c1f"/><path id="Path" d="m4 15c-.55228475 0-1-.4477153-1-1v-3c0-.5522847.44771525-1 1-1h3c.55228475 0 1 .4477153 1 1s-.44771525 1-1 1h-2v2c0 .5522847-.44771525 1-1 1z" fill="#f5efca"/><g fill="#547580"><circle id="Oval" cx="13" cy="38" r="3"/><circle id="Oval" cx="29" cy="38" r="3"/><circle id="Oval" cx="45" cy="38" r="3"/></g></g></g></svg>